<svg xmlns="http://www.w3.org/2000/svg" width="900" height="720" viewBox="0 0 900 720">
<rect width="900" height="720" fill="#faf8f2"/>
<style>text{font-family:Arial,sans-serif;fill:#292929}.t{font-size:24px;font-weight:700}.s{font-size:16px}.d{stroke:#5b5b5b;stroke-width:2;fill:none}.g{stroke:#b8b8b8;stroke-width:1;stroke-dasharray:6 6}.o{stroke:#252525;stroke-width:5;fill:#f0eee7}.b{stroke:#1672b8;stroke-width:3;fill:none}.p{fill:#c93434}.a{stroke:#1672b8;stroke-width:2;marker-start:url(#m);marker-end:url(#m)}</style>
<defs><marker id="m" markerWidth="8" markerHeight="8" refX="4" refY="4" orient="auto"><path d="M8 0L0 4L8 8Z" fill="#1672b8"/></marker></defs>
<text x="34" y="42" class="t">Sunny Acres Cow B1 — controlled Holstein rear target</text>
<text x="34" y="68" class="s">Rump, pins, udder attachment, hock alignment and hind-hoof tracking target.</text>
<rect x="75" y="95" width="750" height="520" class="g"/><text x="694" y="118" class="s">B0 X/Y envelope</text>
<line x1="75" y1="575" x2="825" y2="575" class="d"/>
<!-- silhouette -->
<path class="o" d="M450 190 Q383 188 335 226 Q302 257 292 315 Q286 369 311 422 L337 474 L346 575 L392 575 L400 486 Q411 441 428 419 Q440 409 450 409 Q460 409 472 419 Q489 441 500 486 L508 575 L554 575 L563 474 L589 422 Q614 369 608 315 Q598 257 565 226 Q517 188 450 190Z"/>
<!-- rump top --> <path d="M319 226 Q374 177 450 185 Q526 177 581 226" class="d" stroke-width="7"/>
<!-- udder --> <path d="M365 384 Q450 348 535 384 Q550 433 524 481 Q450 507 376 481 Q350 433 365 384Z" fill="#efb5b0" stroke="#7d4c49" stroke-width="3"/>
<!-- tail --> <path d="M450 196 Q462 290 452 380" class="d" stroke-width="7"/><ellipse cx="452" cy="394" rx="15" ry="28" fill="#333"/>
<!-- official pin landmarks -->
<circle cx="411" cy="215" r="6" class="p"/><circle cx="489" cy="215" r="6" class="p"/>
<text x="392" y="199" class="s">pins</text>
<!-- hooks --> <circle cx="307" cy="225" r="6" class="p"/><circle cx="593" cy="225" r="6" class="p"/>
<!-- hocks/hooves --> <circle cx="340" cy="438" r="6" class="p"/><circle cx="560" cy="438" r="6" class="p"/><circle cx="346" cy="575" r="6" class="p"/><circle cx="554" cy="575" r="6" class="p"/>
<!-- attachment guide --> <line x1="411" y1="356" x2="489" y2="356" class="a"/><text x="333" y="343" class="s">rear udder attachment 0.1626 biological anchor</text>
<line x1="307" y1="145" x2="593" y2="145" class="a"/><text x="375" y="134" class="s">outer hook width 0.60</text>
<line x1="411" y1="170" x2="489" y2="170" class="a"/><text x="388" y="161" class="s">pin-bone spacing 0.1626</text>
<line x1="340" y1="610" x2="560" y2="610" class="a"/><text x="373" y="638" class="s">hind hoof centers ±0.23</text>
<line x1="450" y1="95" x2="450" y2="575" class="g"/><text x="460" y="555" class="s">symmetry axis</text>
<rect x="242" y="147" width="416" height="428" class="b" stroke-dasharray="10 7"/>
<text x="515" y="597" class="s">rear legs: near-straight; no obvious hock-in/toe-out</text>
</svg>